<svg width="727" height="140" viewBox="0 0 727 140" fill="none" xmlns="http://www.w3.org/2000/svg">
<path d="M8 76.5L65.5 19L123 76.5L180.5 19" stroke="#F6C90E" stroke-width="15" stroke-linecap="round"/>
<circle cx="65.5" cy="14.5" r="14.5" fill="#F6C90E"/>
<circle cx="183.5" cy="15.5" r="14.5" fill="#F6C90E"/>
<path d="M8 128.5L65.5 71L123 128.5L180.5 71" stroke="white" stroke-width="15" stroke-linecap="round"/>
<circle cx="65.5" cy="67.5" r="14.5" fill="white"/>
<circle cx="185.5" cy="66.5" r="14.5" fill="white"/>
<path d="M262.12 92.98C258.107 92.98 254.233 92.49 250.5 91.51C246.813 90.4833 243.803 89.1767 241.47 87.59L246.02 77.37C248.213 78.77 250.733 79.9367 253.58 80.87C256.473 81.7567 259.343 82.2 262.19 82.2C264.103 82.2 265.643 82.0367 266.81 81.71C267.977 81.3367 268.817 80.87 269.33 80.31C269.89 79.7033 270.17 79.0033 270.17 78.21C270.17 77.09 269.657 76.2033 268.63 75.55C267.603 74.8967 266.273 74.36 264.64 73.94C263.007 73.52 261.187 73.1 259.18 72.68C257.22 72.26 255.237 71.7233 253.23 71.07C251.27 70.4167 249.473 69.5767 247.84 68.55C246.207 67.4767 244.877 66.1 243.85 64.42C242.823 62.6933 242.31 60.5233 242.31 57.91C242.31 54.97 243.103 52.31 244.69 49.93C246.323 47.55 248.75 45.6367 251.97 44.19C255.19 42.7433 259.203 42.02 264.01 42.02C267.23 42.02 270.38 42.3933 273.46 43.14C276.587 43.84 279.363 44.89 281.79 46.29L277.52 56.58C275.187 55.32 272.877 54.3867 270.59 53.78C268.303 53.1267 266.087 52.8 263.94 52.8C262.027 52.8 260.487 53.01 259.32 53.43C258.153 53.8033 257.313 54.3167 256.8 54.97C256.287 55.6233 256.03 56.37 256.03 57.21C256.03 58.2833 256.52 59.1467 257.5 59.8C258.527 60.4067 259.857 60.92 261.49 61.34C263.17 61.7133 264.99 62.11 266.95 62.53C268.957 62.95 270.94 63.4867 272.9 64.14C274.907 64.7467 276.727 65.5867 278.36 66.66C279.993 67.6867 281.3 69.0633 282.28 70.79C283.307 72.47 283.82 74.5933 283.82 77.16C283.82 80.0067 283.003 82.6433 281.37 85.07C279.783 87.45 277.38 89.3633 274.16 90.81C270.987 92.2567 266.973 92.98 262.12 92.98ZM306.532 92.63C301.679 92.63 297.899 91.44 295.192 89.06C292.486 86.6333 291.132 82.9933 291.132 78.14V45.59H304.432V78C304.432 79.3533 304.806 80.4267 305.552 81.22C306.299 81.9667 307.256 82.34 308.422 82.34C310.009 82.34 311.362 81.9433 312.482 81.15L315.772 90.46C314.652 91.2067 313.276 91.7433 311.642 92.07C310.009 92.4433 308.306 92.63 306.532 92.63ZM285.602 65.4V55.46H313.112V65.4H285.602ZM339.687 92.63C335.207 92.63 331.287 91.79 327.927 90.11C324.614 88.3833 322.024 86.05 320.157 83.11C318.337 80.1233 317.427 76.74 317.427 72.96C317.427 69.18 318.314 65.82 320.087 62.88C321.907 59.8933 324.404 57.5833 327.577 55.95C330.75 54.27 334.32 53.43 338.287 53.43C342.02 53.43 345.427 54.2 348.507 55.74C351.587 57.2333 354.037 59.45 355.857 62.39C357.677 65.33 358.587 68.9 358.587 73.1C358.587 73.5667 358.564 74.1033 358.517 74.71C358.47 75.3167 358.424 75.8767 358.377 76.39H328.347V69.39H351.307L346.267 71.35C346.314 69.6233 345.987 68.13 345.287 66.87C344.634 65.61 343.7 64.63 342.487 63.93C341.32 63.23 339.944 62.88 338.357 62.88C336.77 62.88 335.37 63.23 334.157 63.93C332.99 64.63 332.08 65.6333 331.427 66.94C330.774 68.2 330.447 69.6933 330.447 71.42V73.45C330.447 75.3167 330.82 76.9267 331.567 78.28C332.36 79.6333 333.48 80.6833 334.927 81.43C336.374 82.13 338.1 82.48 340.107 82.48C341.974 82.48 343.56 82.2233 344.867 81.71C346.22 81.15 347.55 80.31 348.857 79.19L355.857 86.47C354.037 88.4767 351.797 90.0167 349.137 91.09C346.477 92.1167 343.327 92.63 339.687 92.63ZM386.864 92V84.93L385.954 83.18V70.16C385.954 68.06 385.3 66.45 383.994 65.33C382.734 64.1633 380.704 63.58 377.904 63.58C376.084 63.58 374.24 63.8833 372.374 64.49C370.507 65.05 368.92 65.8433 367.614 66.87L363.134 57.84C365.28 56.44 367.847 55.3667 370.834 54.62C373.867 53.8267 376.877 53.43 379.864 53.43C386.024 53.43 390.784 54.8533 394.144 57.7C397.55 60.5 399.254 64.91 399.254 70.93V92H386.864ZM375.664 92.63C372.63 92.63 370.064 92.1167 367.964 91.09C365.864 90.0633 364.254 88.6633 363.134 86.89C362.06 85.1167 361.524 83.1333 361.524 80.94C361.524 78.6067 362.107 76.6 363.274 74.92C364.487 73.1933 366.33 71.8867 368.804 71C371.277 70.0667 374.474 69.6 378.394 69.6H387.354V76.53H380.214C378.067 76.53 376.55 76.88 375.664 77.58C374.824 78.28 374.404 79.2133 374.404 80.38C374.404 81.5467 374.847 82.48 375.734 83.18C376.62 83.88 377.834 84.23 379.374 84.23C380.82 84.23 382.127 83.88 383.294 83.18C384.507 82.4333 385.394 81.3133 385.954 79.82L387.774 84.72C387.074 87.3333 385.697 89.3167 383.644 90.67C381.637 91.9767 378.977 92.63 375.664 92.63ZM457.069 53.43C460.009 53.43 462.622 54.0367 464.909 55.25C467.242 56.4167 469.062 58.2367 470.369 60.71C471.722 63.1833 472.399 66.38 472.399 70.3V92H459.099V72.47C459.099 69.7633 458.586 67.8033 457.559 66.59C456.532 65.33 455.132 64.7 453.359 64.7C452.099 64.7 450.956 65.0033 449.929 65.61C448.902 66.2167 448.109 67.15 447.549 68.41C446.989 69.6233 446.709 71.21 446.709 73.17V92H433.409V72.47C433.409 69.7633 432.896 67.8033 431.869 66.59C430.889 65.33 429.489 64.7 427.669 64.7C426.362 64.7 425.196 65.0033 424.169 65.61C423.189 66.2167 422.396 67.15 421.789 68.41C421.229 69.6233 420.949 71.21 420.949 73.17V92H407.649V54.06H420.319V64.63L417.799 61.62C419.199 58.9133 421.112 56.8833 423.539 55.53C425.966 54.13 428.672 53.43 431.659 53.43C435.066 53.43 438.052 54.3167 440.619 56.09C443.232 57.8167 444.982 60.5233 445.869 64.21L441.529 63.3C442.882 60.22 444.912 57.8167 447.619 56.09C450.372 54.3167 453.522 53.43 457.069 53.43Z" fill="white"/>
<path d="M481.423 92V43H503.823C508.303 43 512.153 43.7233 515.373 45.17C518.64 46.6167 521.16 48.7167 522.933 51.47C524.707 54.1767 525.593 57.3967 525.593 61.13C525.593 64.8167 524.707 68.0133 522.933 70.72C521.16 73.4267 518.64 75.5267 515.373 77.02C512.153 78.4667 508.303 79.19 503.823 79.19H489.123L495.283 73.17V92H481.423ZM495.283 74.64L489.123 68.27H502.983C505.877 68.27 508.023 67.64 509.423 66.38C510.87 65.12 511.593 63.37 511.593 61.13C511.593 58.8433 510.87 57.07 509.423 55.81C508.023 54.55 505.877 53.92 502.983 53.92H489.123L495.283 47.55V74.64ZM554.549 92V84.93L553.639 83.18V70.16C553.639 68.06 552.986 66.45 551.679 65.33C550.419 64.1633 548.389 63.58 545.589 63.58C543.769 63.58 541.926 63.8833 540.059 64.49C538.193 65.05 536.606 65.8433 535.299 66.87L530.819 57.84C532.966 56.44 535.533 55.3667 538.519 54.62C541.553 53.8267 544.563 53.43 547.549 53.43C553.709 53.43 558.469 54.8533 561.829 57.7C565.236 60.5 566.939 64.91 566.939 70.93V92H554.549ZM543.349 92.63C540.316 92.63 537.749 92.1167 535.649 91.09C533.549 90.0633 531.939 88.6633 530.819 86.89C529.746 85.1167 529.209 83.1333 529.209 80.94C529.209 78.6067 529.793 76.6 530.959 74.92C532.173 73.1933 534.016 71.8867 536.489 71C538.963 70.0667 542.159 69.6 546.079 69.6H555.039V76.53H547.899C545.753 76.53 544.236 76.88 543.349 77.58C542.509 78.28 542.089 79.2133 542.089 80.38C542.089 81.5467 542.533 82.48 543.419 83.18C544.306 83.88 545.519 84.23 547.059 84.23C548.506 84.23 549.813 83.88 550.979 83.18C552.193 82.4333 553.079 81.3133 553.639 79.82L555.459 84.72C554.759 87.3333 553.383 89.3167 551.329 90.67C549.323 91.9767 546.663 92.63 543.349 92.63ZM575.334 92V40.06H588.634V92H575.334ZM603.788 106.21C601.781 106.21 599.751 105.883 597.698 105.23C595.691 104.623 594.058 103.807 592.798 102.78L597.418 93.47C598.211 94.17 599.121 94.7067 600.148 95.08C601.221 95.5 602.271 95.71 603.298 95.71C604.744 95.71 605.888 95.3833 606.728 94.73C607.568 94.0767 608.291 93.05 608.898 91.65L610.648 87.24L611.698 85.91L624.578 54.06H637.248L620.868 93.54C619.561 96.8067 618.044 99.35 616.318 101.17C614.638 103.037 612.748 104.343 610.648 105.09C608.594 105.837 606.308 106.21 603.788 106.21ZM608.968 93.61L592.238 54.06H605.888L618.208 84.72L608.968 93.61ZM659.051 92.63C654.851 92.63 651.094 91.79 647.781 90.11C644.514 88.43 641.947 86.12 640.081 83.18C638.214 80.1933 637.281 76.7867 637.281 72.96C637.281 69.1333 638.214 65.75 640.081 62.81C641.947 59.87 644.514 57.5833 647.781 55.95C651.094 54.27 654.851 53.43 659.051 53.43C663.344 53.43 667.054 54.34 670.181 56.16C673.307 57.98 675.524 60.5467 676.831 63.86L666.541 69.11C665.654 67.3367 664.557 66.0533 663.251 65.26C661.944 64.42 660.521 64 658.981 64C657.441 64 656.041 64.35 654.781 65.05C653.521 65.75 652.517 66.7767 651.771 68.13C651.071 69.4367 650.721 71.0467 650.721 72.96C650.721 74.92 651.071 76.5767 651.771 77.93C652.517 79.2833 653.521 80.31 654.781 81.01C656.041 81.71 657.441 82.06 658.981 82.06C660.521 82.06 661.944 81.6633 663.251 80.87C664.557 80.03 665.654 78.7233 666.541 76.95L676.831 82.2C675.524 85.5133 673.307 88.08 670.181 89.9C667.054 91.72 663.344 92.63 659.051 92.63ZM706.412 53.43C709.352 53.43 712.012 54.0367 714.392 55.25C716.772 56.4167 718.638 58.2367 719.992 60.71C721.392 63.1833 722.092 66.38 722.092 70.3V92H708.792V72.47C708.792 69.7633 708.232 67.8033 707.112 66.59C706.038 65.33 704.522 64.7 702.562 64.7C701.162 64.7 699.878 65.0267 698.712 65.68C697.545 66.2867 696.635 67.2433 695.982 68.55C695.328 69.8567 695.002 71.56 695.002 73.66V92H681.702V40.06H695.002V64.84L691.922 61.69C693.368 58.9367 695.352 56.8833 697.872 55.53C700.392 54.13 703.238 53.43 706.412 53.43Z" fill="#F6C90E"/>
</svg>
